<svg width="45" height="25" viewBox="0 0 45 25" fill="none" xmlns="http://www.w3.org/2000/svg">
<path d="M9.00513 7.75684H14.5166V9.17909H11.0706V10.2389H14.2639V11.5956H11.0706V12.9039H14.6191V14.409H9.00513V7.75684ZM5.59937 0H39.397C40.9387 0 42.3377 0.593759 43.3521 1.54999C44.3665 2.50621 44.9963 3.82836 44.9963 5.27824V19.7183C44.9963 21.1682 44.3665 22.4869 43.3484 23.4466C42.334 24.4028 40.9314 25 39.3933 25H5.59937C4.06128 25 2.65869 24.4062 1.64429 23.4466C0.629883 22.4938 0 21.1716 0 19.7218V5.27824C0 3.82491 0.629883 2.50621 1.64429 1.54999C2.65869 0.593759 4.06128 0 5.59937 0ZM1.20483 17.7644C1.41357 18.5032 1.83105 19.166 2.39136 19.6941C3.21533 20.4709 4.35059 20.9542 5.60303 20.9542H39.4043C39.4556 20.9542 39.5032 20.9542 39.5544 20.9507L39.8657 20.93C40.9314 20.8264 41.8945 20.3742 42.616 19.6941C43.1763 19.166 43.5901 18.5032 43.7988 17.7644V5.27824C43.7988 4.1425 43.3044 3.10688 42.5061 2.35432C41.7078 1.60177 40.6128 1.13574 39.4043 1.13574H5.59937C4.39087 1.13574 3.29224 1.60177 2.49756 2.35432C1.69922 3.10688 1.20483 4.1425 1.20483 5.27824V17.7644ZM15.6116 9.58644H17.3364V10.3701C17.5928 10.049 17.8528 9.81773 18.1165 9.6831C18.3801 9.54502 18.6987 9.47597 19.0796 9.47597C19.5923 9.47597 19.9915 9.62787 20.2808 9.93165C20.5701 10.2354 20.7129 10.7049 20.7129 11.3401V14.4056H18.8489V11.7543C18.8489 11.4506 18.7939 11.2365 18.6804 11.1123C18.5669 10.988 18.4131 10.9224 18.2117 10.9224C17.9883 10.9224 17.8088 11.0087 17.6697 11.1779C17.5305 11.347 17.4609 11.6508 17.4609 12.0892V14.4056H15.6079V9.58644H15.6116ZM24.0564 7.75684V9.58644H25.0708V10.9431H24.0564V12.6484C24.0564 12.8521 24.0784 12.9902 24.115 13.0558C24.1772 13.1593 24.2834 13.2077 24.4336 13.2077C24.5691 13.2077 24.7595 13.1697 25.0085 13.0903L25.144 14.3676C24.6863 14.4677 24.2578 14.5195 23.8623 14.5195C23.4009 14.5195 23.0603 14.4608 22.8442 14.3434C22.6282 14.226 22.467 14.0465 22.3608 13.8049C22.2583 13.5632 22.2034 13.1766 22.2034 12.6381V10.9431H21.5222V9.58644H22.2034V8.70271L24.0564 7.75684ZM31.3184 12.4551H27.6013C27.6343 12.752 27.7148 12.9729 27.843 13.1179C28.0225 13.3285 28.2568 13.4321 28.5461 13.4321C28.7292 13.4321 28.9014 13.3872 29.0662 13.2974C29.1687 13.2387 29.2749 13.1386 29.3921 12.9971L31.2158 13.1628C30.9375 13.6461 30.6006 13.9948 30.2051 14.2019C29.8096 14.4125 29.2456 14.516 28.5059 14.516C27.865 14.516 27.3633 14.4263 26.9934 14.2468C26.6272 14.0672 26.3232 13.7807 26.0815 13.3906C25.8398 12.9971 25.719 12.538 25.719 12.0064C25.719 11.2538 25.9607 10.6428 26.4441 10.1767C26.9275 9.71072 27.5977 9.47597 28.4473 9.47597C29.1394 9.47597 29.6851 9.58299 30.0842 9.79011C30.4834 10.0007 30.791 10.301 30.9998 10.698C31.2085 11.095 31.3147 11.6094 31.3147 12.248V12.4551H31.3184ZM29.436 11.5714C29.3994 11.2124 29.3042 10.9569 29.1467 10.8016C28.9893 10.6462 28.7842 10.5703 28.5278 10.5703C28.2312 10.5703 27.9968 10.6877 27.821 10.9224C27.7075 11.0674 27.6379 11.2849 27.605 11.5748H29.436V11.5714ZM32.1863 9.58644H33.9221V10.3735C34.0906 10.0318 34.2627 9.79702 34.4385 9.66929C34.6179 9.54156 34.834 9.47597 35.0977 9.47597C35.3723 9.47597 35.6726 9.56228 35.9949 9.73143L35.4199 11.0432C35.2002 10.9535 35.0281 10.9086 34.8999 10.9086C34.6582 10.9086 34.4678 11.0087 34.3359 11.2089C34.1455 11.492 34.0503 12.0167 34.0503 12.79V14.409H32.1863V9.58644Z" fill="#F5F5F5"/>
</svg>
