<svg width="45" height="25" viewBox="0 0 45 25" fill="none" xmlns="http://www.w3.org/2000/svg">
<path fill-rule="evenodd" clip-rule="evenodd" d="M4.25171 0H40.7446C41.9128 0 42.9749 0.595563 43.7476 1.55028C44.5203 2.50955 45 3.83251 45 5.27823V19.7218C45 21.1675 44.5203 22.4905 43.7476 23.4452C42.9749 24.4044 41.9128 25 40.7483 25H4.25171C3.08716 25 2.02148 24.4044 1.24878 23.4452C0.479736 22.4905 0 21.172 0 19.7172V5.27823C0 3.82342 0.479736 2.505 1.24878 1.55028C2.01782 0.595563 3.0835 0 4.25171 0ZM10.7446 12.2068L12.2314 12.084C12.2644 12.3977 12.3303 12.6432 12.4292 12.8069C12.5903 13.0751 12.821 13.2115 13.1213 13.2115C13.3447 13.2115 13.5168 13.1433 13.6377 13.0069C13.7585 12.8705 13.8208 12.7114 13.8208 12.5296C13.8208 12.3568 13.7659 12.2022 13.6487 12.0658C13.5352 11.9294 13.2678 11.8021 12.8503 11.6794C12.1655 11.4794 11.6748 11.2111 11.3855 10.8747C11.0925 10.5383 10.9424 10.1155 10.9424 9.59265C10.9424 9.25168 11.0193 8.9289 11.1694 8.62884C11.3196 8.32424 11.5466 8.08783 11.8506 7.91053C12.1545 7.73777 12.5684 7.65139 13.0957 7.65139C13.7439 7.65139 14.2346 7.81051 14.5752 8.12875C14.9158 8.44244 15.1172 8.94708 15.1794 9.63812L13.7073 9.75177C13.667 9.45172 13.5864 9.22895 13.4619 9.09256C13.3374 8.95617 13.1616 8.88798 12.9419 8.88798C12.7588 8.88798 12.6233 8.93799 12.5317 9.03801C12.4402 9.13802 12.3926 9.26077 12.3926 9.40626C12.3926 9.51082 12.4292 9.60629 12.5061 9.69267C12.5793 9.77905 12.7515 9.86088 13.0298 9.93817C13.7146 10.1337 14.2017 10.3292 14.4983 10.5246C14.7949 10.7247 15.011 10.9656 15.1428 11.2611C15.2783 11.5521 15.3442 11.8794 15.3442 12.2431C15.3442 12.6705 15.2563 13.0615 15.0769 13.4206C14.8975 13.7798 14.6484 14.0526 14.3225 14.239C14.0002 14.4253 13.5938 14.5163 13.1067 14.5163C12.2461 14.5163 11.6492 14.2981 11.3196 13.8616C10.979 13.4297 10.7886 12.8751 10.7446 12.2068ZM16.0364 16.2348V9.58356H17.3547V10.2928C17.5378 9.99273 17.7026 9.78814 17.8564 9.68358C18.0615 9.54264 18.2886 9.4699 18.5376 9.4699C19.0283 9.4699 19.4055 9.7154 19.6765 10.2109C19.9438 10.7065 20.0793 11.3157 20.0793 12.0431C20.0793 12.8478 19.9329 13.457 19.6399 13.8798C19.3469 14.3026 18.9771 14.5117 18.5303 14.5117C18.3142 14.5117 18.1165 14.4617 17.937 14.3662C17.7576 14.2708 17.6001 14.1253 17.4573 13.9344V16.2257H16.0364V16.2348ZM17.4463 12.0113C17.4463 12.3932 17.5085 12.6796 17.6294 12.866C17.7502 13.0524 17.9041 13.1433 18.0908 13.1433C18.252 13.1433 18.3911 13.0569 18.501 12.8751C18.6108 12.6978 18.6658 12.3932 18.6658 11.9704C18.6658 11.5794 18.6072 11.2884 18.4937 11.1066C18.3765 10.9202 18.2373 10.8292 18.0725 10.8292C17.8931 10.8292 17.7466 10.9202 17.6257 11.1066C17.5085 11.293 17.4463 11.593 17.4463 12.0113ZM22.0349 11.1475L20.6909 10.9611C20.7422 10.6519 20.8154 10.4064 20.9106 10.2337C21.0059 10.0564 21.1414 9.9018 21.3245 9.7745C21.4526 9.67903 21.6284 9.60629 21.8555 9.55628C22.0789 9.50627 22.3242 9.479 22.5879 9.479C23.009 9.479 23.3459 9.51082 23.6023 9.56992C23.8586 9.63357 24.071 9.76087 24.2395 9.95636C24.3604 10.0927 24.4556 10.2882 24.5215 10.5337C24.5911 10.7838 24.624 11.0202 24.624 11.2475V13.3752C24.624 13.6025 24.635 13.7798 24.657 13.9071C24.679 14.0344 24.7266 14.198 24.7998 14.3981H23.4851C23.4338 14.2753 23.3972 14.1798 23.3826 14.1162C23.3679 14.0526 23.3496 13.9525 23.335 13.8116C23.1519 14.0435 22.9688 14.2071 22.7856 14.3071C22.5366 14.439 22.2473 14.5072 21.9177 14.5072C21.4819 14.5072 21.1487 14.3753 20.9216 14.1071C20.6946 13.8389 20.5811 13.5115 20.5811 13.1206C20.5811 12.7523 20.6616 12.4523 20.8264 12.2159C20.9912 11.9795 21.2915 11.8021 21.731 11.6885C22.2583 11.5476 22.5989 11.4521 22.7563 11.393C22.9138 11.3384 23.0786 11.2657 23.2544 11.1748C23.2544 10.9474 23.2178 10.7883 23.1482 10.6974C23.0786 10.6065 22.9541 10.561 22.7747 10.561C22.5439 10.561 22.3718 10.611 22.2583 10.7065C22.1594 10.7929 22.0898 10.9338 22.0349 11.1475ZM23.2507 12.1113C23.0566 12.2022 22.8552 12.2841 22.6465 12.3522C22.3608 12.4523 22.1814 12.5523 22.1045 12.6478C22.0239 12.7478 21.9873 12.8614 21.9873 12.9933C21.9873 13.1388 22.0276 13.2615 22.1045 13.3524C22.1814 13.4434 22.2949 13.4934 22.4451 13.4934C22.6025 13.4934 22.749 13.4434 22.8845 13.3433C23.02 13.2433 23.1152 13.1206 23.1702 12.9751C23.2251 12.8296 23.2544 12.6387 23.2544 12.4068V12.1113H23.2507ZM28.2019 12.5205L29.5386 12.7159C29.4653 13.0842 29.3445 13.3979 29.176 13.6707C29.0076 13.9389 28.7915 14.148 28.5315 14.2981C28.2715 14.4481 27.9382 14.5208 27.5354 14.5208C27.1472 14.5208 26.8213 14.4708 26.5613 14.3799C26.3049 14.2844 26.0815 14.1298 25.8948 13.9162C25.708 13.7025 25.5615 13.4524 25.4553 13.166C25.3491 12.8796 25.2979 12.4977 25.2979 12.0204C25.2979 11.5248 25.3638 11.1111 25.4919 10.7838C25.5872 10.5428 25.7153 10.3246 25.8801 10.1337C26.0449 9.94272 26.2097 9.79724 26.3855 9.70631C26.6602 9.55628 27.0117 9.48354 27.4402 9.48354C28.0408 9.48354 28.4949 9.62448 28.8098 9.90635C29.1248 10.1882 29.3445 10.5974 29.4727 11.1384L28.1506 11.3702C28.1104 11.1657 28.0334 11.0111 27.9236 10.9065C27.8137 10.802 27.6672 10.752 27.4805 10.752C27.2498 10.752 27.0593 10.8611 26.9165 11.0793C26.7737 11.2975 26.7004 11.6294 26.7004 12.0749C26.7004 12.4704 26.7737 12.7705 26.9165 12.9751C27.0593 13.1797 27.2388 13.2842 27.4622 13.2842C27.6453 13.2842 27.8027 13.2206 27.9272 13.0978C28.0444 12.966 28.1396 12.775 28.2019 12.5205ZM34.2554 12.4568H31.4355C31.4612 12.7523 31.5234 12.9751 31.6187 13.1206C31.7542 13.3297 31.9336 13.4343 32.1497 13.4343C32.2888 13.4343 32.4207 13.3888 32.5452 13.2979C32.6221 13.2388 32.7026 13.1388 32.7905 12.9978L34.1748 13.166C33.9624 13.6479 33.7061 13.998 33.4058 14.2071C33.1055 14.4163 32.677 14.5208 32.1167 14.5208C31.6296 14.5208 31.2488 14.4299 30.9705 14.248C30.6921 14.0707 30.4614 13.7843 30.2783 13.3888C30.0952 12.9978 30.0037 12.5341 30.0037 12.0067C30.0037 11.252 30.1868 10.6428 30.5566 10.1746C30.9229 9.71086 31.4319 9.47445 32.0801 9.47445C32.6074 9.47445 33.0176 9.57901 33.3252 9.78814C33.6292 9.99727 33.8599 10.2973 34.021 10.6974C34.1785 11.0929 34.259 11.6112 34.259 12.2477V12.4568H34.2554ZM32.8235 11.5748C32.7979 11.2157 32.7209 10.9611 32.6038 10.802C32.4829 10.6474 32.3291 10.5701 32.135 10.5701C31.9116 10.5701 31.7322 10.6883 31.5967 10.9202C31.5125 11.0656 31.4575 11.2839 31.4355 11.5703H32.8235V11.5748ZM0.915527 17.7623C1.073 18.5034 1.38794 19.1671 1.81274 19.6945C2.43896 20.4719 3.30322 20.9538 4.25171 20.9538H40.7483C40.7849 20.9538 40.8252 20.9538 40.8618 20.9493L41.0962 20.9311C41.9055 20.8311 42.6379 20.3764 43.1873 19.6945C43.6121 19.1671 43.927 18.5034 44.0845 17.7669V5.27823C44.0845 4.14621 43.7073 3.10511 43.103 2.35497C42.4988 1.60484 41.6638 1.13657 40.7483 1.13657H4.25171C3.33618 1.13657 2.50122 1.60484 1.89697 2.35497C1.29272 3.10511 0.915527 4.14166 0.915527 5.27823V17.7623Z" fill="#F5F5F5"/>
</svg>
